<svg width="512" height="512" viewBox="0 0 512 512" fill="none" xmlns="http://www.w3.org/2000/svg">
<path d="M88.0803 192.04C81.4203 192.04 74.7503 191.92 68.0803 192.04C65.1403 192.11 63.9503 191.31 63.9903 188.14C64.1403 172.32 63.3403 156.45 64.2703 140.68C65.6302 114.043 75.7792 88.6067 93.1303 68.3499C111.6 46.4499 134.89 32.6499 162.84 26.6699C169.802 25.0809 176.91 24.2163 184.05 24.0899C204.7 24.0899 225.37 23.5899 246.05 24.2099C266.9 24.8599 284.35 33.4299 298.7 48.8599C309.704 60.899 324.552 68.7366 340.7 71.0299C353.63 72.9499 366.89 71.8899 379.61 75.9599C408.8 85.2899 429.24 103.96 441.16 132.19C448.92 150.57 448.03 169.89 447.97 189.19C447.97 191.87 446.44 192.06 444.41 192.05C437.58 192.05 430.75 192.05 423.92 192.05C421.19 194.3 417.92 193.64 414.8 193.65C369.187 193.69 323.58 193.69 277.98 193.65C217.734 193.65 157.48 193.65 97.2203 193.65C94.1103 193.64 90.8203 194.29 88.0803 192.04Z" fill="#F4C89C"/>
<path d="M417.997 383.21C425.887 384.83 433.887 384 441.797 383.77C447.077 383.62 448.157 385.33 448.017 390.22C447.657 401.86 447.957 413.53 447.877 425.22C447.687 455.76 424.127 482.64 393.877 487.09C390.273 487.608 386.637 487.866 382.997 487.86C298.25 487.86 213.497 487.86 128.737 487.86C97.9565 487.86 72.4965 467.65 65.5565 437.76C64.5328 433.573 64.0092 429.28 63.9965 424.97C64.0965 413.48 63.9965 401.97 63.9965 390.5C63.9965 383.13 63.2565 383.99 70.7865 383.95C76.6165 383.95 82.4465 383.95 88.2765 383.95C89.8565 383.95 91.6365 384.6 92.9665 383.07C93.9665 381.99 95.3465 382.07 96.6865 382.07C157.937 382.74 219.197 382.26 280.447 382.33C324.887 382.38 369.327 382.56 413.767 382.21C415.327 382.15 416.887 381.86 417.997 383.21Z" fill="#F4C89C"/>
<path d="M417.997 383.21C414.07 383.872 410.085 384.12 406.107 383.95H110.907C104.907 383.95 98.9066 384.27 93.0366 383.04C81.2166 379.55 73.9766 371.67 72.3766 359.56C70.7966 347.64 75.7066 338.28 85.9166 331.79C86.7106 331.232 87.4688 330.624 88.1866 329.97C91.7766 326.61 96.3366 326.45 100.797 326.44C126.517 326.39 152.237 326.27 177.957 326.49C180.597 326.49 183.257 326.81 185.877 326.23C191.667 325.85 197.017 328.03 202.497 329.29C242.583 338.51 282.647 347.844 322.687 357.29C324.358 357.735 326.104 357.828 327.813 357.563C329.523 357.298 331.158 356.681 332.617 355.75C347.803 346.75 363.05 337.85 378.357 329.05C380.357 327.88 382.417 326.73 384.847 326.62C393.797 326.24 402.747 326.36 411.687 326.48C415.977 326.54 420.347 326.76 423.807 329.95C429.147 333.83 434.397 337.7 437.297 344.04C444.777 360.42 435.997 378.47 417.997 383.21Z" fill="#B0712C"/>
<path d="M88.1964 285.79C80.2764 280.95 74.1964 274.69 72.5764 265.1C70.7164 253.79 74.4264 244.57 83.4464 237.5C84.9964 236.29 86.6064 235.16 88.1864 234C91.6664 230.83 96.0564 230.65 100.366 230.54C109.366 230.32 118.366 230.63 127.296 230.41C130.156 230.36 132.296 232.13 134.536 233.47C148.866 241.95 163.406 250.08 177.616 258.74C179.61 260.053 181.858 260.93 184.214 261.312C186.57 261.695 188.98 261.575 191.286 260.96C228.236 252.27 265.166 243.5 302.186 235.12C310.106 233.33 317.826 230.44 326.096 230.26C329.236 230.91 332.386 230.51 335.536 230.49C360.916 230.34 386.306 230.4 411.696 230.49C415.986 230.49 420.376 230.74 423.806 234C429.306 238 434.696 242 437.536 248.57C440.203 254.619 440.653 261.413 438.807 267.761C436.962 274.108 432.94 279.603 427.446 283.28C426.216 284.1 425.006 284.95 423.786 285.79C422.256 287.79 420.006 288.39 417.716 288.92C414.441 289.534 411.105 289.766 407.776 289.61H104.216C100.888 289.766 97.5518 289.534 94.2764 288.92C91.9964 288.39 89.7364 287.79 88.1964 285.79Z" fill="#B0712C"/>
<path d="M88.2031 285.79C94.6131 287.92 101.203 288.03 107.903 288.02C206.636 287.973 305.37 287.973 404.103 288.02C410.783 288.02 417.383 287.91 423.793 285.8C423.793 288.22 423.793 290.647 423.793 293.08C422.923 302.23 418.233 308.83 410.313 313.27C401.493 318.2 393.313 324.27 383.773 327.92C374.253 332.32 365.583 338.23 356.473 343.34C347.773 348.22 339.253 353.41 330.683 358.52C329.851 359.031 328.919 359.359 327.95 359.481C326.981 359.604 325.997 359.518 325.063 359.23C292.943 351.637 260.803 344.137 228.643 336.73C214.75 333.483 200.87 330.27 187.003 327.09C179.903 327.62 173.253 325.23 166.533 323.66C146.463 318.98 126.373 314.4 106.323 309.66C104.037 309.203 101.805 308.509 99.6631 307.59C93.4531 304.65 89.0131 300.3 88.2731 293.07L88.2031 285.79Z" fill="#F5BA00"/>
<path d="M325.058 231.15C291.771 238.91 258.485 246.66 225.198 254.4C212.428 257.4 199.618 260.19 186.888 263.31C185.952 263.557 184.974 263.595 184.022 263.423C183.07 263.25 182.167 262.87 181.378 262.31C163.588 251.89 145.738 241.58 127.898 231.23C126.232 231.178 124.607 230.7 123.178 229.84C115.908 225.5 108.558 221.29 101.268 216.99C97.9177 215.116 95.0151 212.535 92.7617 209.427C90.5082 206.319 88.9579 202.757 88.2181 198.99C88.1781 196.664 88.1315 194.33 88.0781 191.99H423.908C423.908 193.35 423.818 194.71 423.768 196.07C423.118 204.86 417.998 210.44 409.998 212.43C382.768 219.17 355.548 226.02 327.998 231.29C327.03 231.577 325.994 231.527 325.058 231.15Z" fill="#F5BA00"/>
<path d="M88.2275 293.08C91.8475 302.79 99.3775 306.91 109.137 309.08C135.137 314.78 161.027 321.08 186.957 327.08C185.417 328.59 183.488 327.93 181.728 327.94C158.448 327.98 135.161 327.98 111.867 327.94C103.867 327.94 95.9275 327.52 88.1875 329.94C88.2008 317.653 88.2142 305.367 88.2275 293.08Z" fill="#90591C"/>
<path d="M325.062 231.15C351.263 225.06 377.423 218.8 403.673 212.96C413.543 210.77 420.813 206.19 423.773 196.12C423.773 208.747 423.773 221.373 423.773 234C415.363 231.43 406.712 232 398.112 232C375.492 232 352.876 232 330.263 232C328.543 231.97 326.612 232.63 325.062 231.15Z" fill="#90591C"/>
<path d="M88.2219 199.04C93.2219 213.36 106.402 218.53 117.992 225.46C121.272 227.46 124.602 229.31 127.902 231.24C125.462 232.8 122.752 231.87 120.172 231.97C109.492 232.36 98.7019 230.88 88.1719 233.97L88.2219 199.04Z" fill="#91591C"/>
<path d="M383.75 327.92C390.63 322.77 398.22 318.73 405.75 314.74C414.88 309.9 421.02 303.02 423.75 293.08C423.75 305.38 423.75 317.673 423.75 329.96C410.6 326.39 397.1 328.6 383.75 327.92Z" fill="#91591C"/>
<path d="M240.226 64.0799C249.336 64.2199 247.946 62.8599 247.966 73.1799C247.966 81.3899 249.046 80.0099 238.526 80.0399C230.716 80.0399 232.086 80.9499 232.026 70.7299C231.996 62.9199 231.386 64.1999 240.226 64.0799Z" fill="#DDAD7E"/>
<path d="M191.817 88.0697C182.687 87.9297 184.077 89.2997 184.057 78.9997C184.057 70.7597 182.967 72.1397 193.467 72.1097C201.317 72.1097 199.937 71.2197 199.997 81.3997C199.997 89.2297 200.637 87.9497 191.817 88.0697Z" fill="#DDAD7E"/>
<path d="M336.268 104.06C345.318 104.2 343.898 102.86 343.938 113.22C343.938 121.32 344.868 120.01 334.938 120.03C326.668 120.03 328.068 121.12 328.008 110.65C327.998 102.86 327.358 104.18 336.268 104.06Z" fill="#DDAD7E"/>
<path d="M144.003 120.28C143.863 129.39 145.223 128 134.903 128.02C126.693 128.02 128.073 129.11 128.033 118.59C128.033 110.77 127.133 112.14 137.353 112.08C145.203 112.04 143.923 111.44 144.003 120.28Z" fill="#DDAD7E"/>
<path d="M287.997 120.32C287.857 129.4 289.207 127.99 278.867 128.03C270.737 128.03 272.047 128.97 272.027 119.03C272.027 110.72 270.937 112.13 281.377 112.03C289.167 112.03 287.867 111.45 287.997 120.32Z" fill="#DDAD7E"/>
<path d="M392.162 120.06C401.292 120.2 399.892 118.83 399.922 129.13C399.922 137.36 401.002 135.99 390.502 136.02C382.652 136.02 384.042 136.91 383.982 126.73C383.932 118.86 383.332 120.17 392.162 120.06Z" fill="#DDAD7E"/>
<path d="M239.778 152.04C230.668 151.9 232.068 153.27 232.038 142.95C232.038 134.79 231.038 136.09 240.978 136.08C249.328 136.08 247.918 135.01 247.978 145.39C247.998 153.2 248.618 151.93 239.778 152.04Z" fill="#DDAD7E"/>
<path d="M183.797 160.04C174.687 159.9 176.077 161.26 176.057 150.94C176.057 142.73 174.927 144.11 185.487 144.08C193.307 144.08 191.937 143.18 191.997 153.39C192.047 161.2 192.637 159.92 183.797 160.04Z" fill="#DDAD7E"/>
<path d="M351.762 160.04C342.632 159.9 344.022 161.27 344.002 150.97C344.002 142.73 342.912 144.11 353.412 144.08C361.262 144.08 359.882 143.19 359.942 153.36C360.002 161.2 360.592 159.92 351.762 160.04Z" fill="#DDAD7E"/>
<path d="M136.21 431.92C126.72 431.78 128.1 433.17 128.07 423.22C128.07 414.63 126.98 415.98 137.12 415.96C145.35 415.96 143.95 414.88 144.02 425.38C144.07 433 144.59 431.86 136.21 431.92Z" fill="#DDAD7E"/>
<path d="M207.741 431.92C198.671 431.78 200.091 433.13 200.051 422.78C200.051 414.67 199.101 415.97 209.051 415.96C217.351 415.96 215.951 414.86 216.051 425.31C216.001 433.09 216.631 431.8 207.741 431.92Z" fill="#DDAD7E"/>
<path d="M264.13 415.93C273.33 416.07 271.94 414.67 271.96 424.93C271.96 433.24 273.06 431.85 262.61 431.93C254.69 431.93 256.08 432.79 256.02 422.71C256 414.86 255.34 416.04 264.13 415.93Z" fill="#DDAD7E"/>
<path d="M352.004 424.03C351.854 433.26 353.264 431.87 343.004 431.89C334.644 431.89 336.004 432.97 336.004 422.58C336.004 414.58 335.154 416.01 345.194 415.95C353.074 415.86 351.864 415.25 352.004 424.03Z" fill="#DDAD7E"/>
<path d="M400.003 432.12C399.863 441.25 401.233 439.86 390.933 439.89C382.693 439.89 384.073 440.97 384.033 430.48C384.033 422.63 383.153 424.01 393.323 423.95C401.103 423.86 399.833 423.3 400.003 432.12Z" fill="#DDAD7E"/>
<path d="M168 439.52C168.12 430.63 166.91 431.97 176.76 431.95C185.3 431.95 183.94 430.89 183.96 441.06C183.96 449.23 185.03 447.83 174.48 447.89C166.87 447.93 168.15 448.58 168 439.52Z" fill="#DDAD7E"/>
<path d="M311.908 439.92C321.318 440.06 319.908 438.68 319.908 448.72C319.908 457.23 320.958 455.86 310.758 455.88C302.628 455.88 304.028 456.93 303.958 446.37C303.998 438.86 303.418 440.02 311.908 439.92Z" fill="#DDAD7E"/>
<path d="M240.079 447.91C249.349 448.06 247.949 446.66 247.969 456.86C247.969 465.24 249.029 463.86 238.679 463.86C230.679 463.86 232.089 464.71 232.029 454.69C231.999 446.86 231.309 448.02 240.079 447.91Z" fill="#DDAD7E"/>
</svg>
