<svg width="120" height="193" viewBox="0 0 120 193" fill="none" xmlns="http://www.w3.org/2000/svg">
<g opacity="0.5">
<rect y="0.422852" width="2.83607" height="2.84073" fill="black"/>
<rect x="18.9062" y="0.422852" width="2.83607" height="2.84073" fill="black"/>
<rect x="37.8145" y="0.422852" width="2.83607" height="2.84073" fill="black"/>
<rect x="56.7217" y="0.422852" width="2.83607" height="2.84073" fill="black"/>
<rect x="75.6279" y="0.422852" width="2.83607" height="2.84073" fill="black"/>
<rect x="94.5361" y="0.422852" width="2.83607" height="2.84073" fill="black"/>
<rect x="113.443" y="0.422852" width="2.83607" height="2.84073" fill="black"/>
<rect y="19.3604" width="2.83607" height="2.84073" fill="black"/>
<rect x="18.9062" y="19.3604" width="2.83607" height="2.84073" fill="black"/>
<rect x="37.8145" y="19.3604" width="2.83607" height="2.84073" fill="black"/>
<rect x="56.7217" y="19.3604" width="2.83607" height="2.84073" fill="black"/>
<rect x="75.6279" y="19.3604" width="2.83607" height="2.84073" fill="black"/>
<rect x="94.5361" y="19.3604" width="2.83607" height="2.84073" fill="black"/>
<rect x="113.443" y="19.3604" width="2.83607" height="2.84073" fill="black"/>
<rect y="38.2998" width="2.83607" height="2.84073" fill="black"/>
<rect x="18.9062" y="38.2998" width="2.83607" height="2.84073" fill="black"/>
<rect x="37.8145" y="38.2998" width="2.83607" height="2.84073" fill="black"/>
<rect x="56.7217" y="38.2998" width="2.83607" height="2.84073" fill="black"/>
<rect x="75.6279" y="38.2998" width="2.83607" height="2.84073" fill="black"/>
<rect x="94.5361" y="38.2998" width="2.83607" height="2.84073" fill="black"/>
<rect x="113.443" y="38.2998" width="2.83607" height="2.84073" fill="black"/>
<rect y="57.2383" width="2.83607" height="2.84073" fill="black"/>
<rect x="18.9062" y="57.2383" width="2.83607" height="2.84073" fill="black"/>
<rect x="37.8145" y="57.2383" width="2.83607" height="2.84073" fill="black"/>
<rect x="56.7217" y="57.2383" width="2.83607" height="2.84073" fill="black"/>
<rect x="75.6279" y="57.2383" width="2.83607" height="2.84073" fill="black"/>
<rect x="94.5361" y="57.2383" width="2.83607" height="2.84073" fill="black"/>
<rect x="113.443" y="57.2383" width="2.83607" height="2.84073" fill="black"/>
<rect y="76.1758" width="2.83607" height="2.84073" fill="black"/>
<rect x="18.9062" y="76.1758" width="2.83607" height="2.84073" fill="black"/>
<rect x="37.8145" y="76.1758" width="2.83607" height="2.84073" fill="black"/>
<rect x="56.7217" y="76.1758" width="2.83607" height="2.84073" fill="black"/>
<rect x="75.6279" y="76.1758" width="2.83607" height="2.84073" fill="black"/>
<rect x="94.5361" y="76.1758" width="2.83607" height="2.84073" fill="black"/>
<rect x="113.443" y="76.1758" width="2.83607" height="2.84073" fill="black"/>
<rect y="95.1143" width="2.83607" height="2.84073" fill="black"/>
<rect x="18.9062" y="95.1143" width="2.83607" height="2.84073" fill="black"/>
<rect x="37.8145" y="95.1143" width="2.83607" height="2.84073" fill="black"/>
<rect x="56.7217" y="95.1143" width="2.83607" height="2.84073" fill="black"/>
<rect x="75.6279" y="95.1143" width="2.83607" height="2.84073" fill="black"/>
<rect x="94.5361" y="95.1143" width="2.83607" height="2.84073" fill="black"/>
<rect x="113.443" y="95.1143" width="2.83607" height="2.84073" fill="black"/>
<rect y="114.052" width="2.83607" height="2.84073" fill="black"/>
<rect x="18.9062" y="114.052" width="2.83607" height="2.84073" fill="black"/>
<rect x="37.8145" y="114.052" width="2.83607" height="2.84073" fill="black"/>
<rect x="56.7217" y="114.052" width="2.83607" height="2.84073" fill="black"/>
<rect x="75.6279" y="114.052" width="2.83607" height="2.84073" fill="black"/>
<rect x="94.5361" y="114.052" width="2.83607" height="2.84073" fill="black"/>
<rect x="113.443" y="114.052" width="2.83607" height="2.84073" fill="black"/>
<rect y="132.989" width="2.83607" height="2.84073" fill="black"/>
<rect x="18.9062" y="132.991" width="2.83607" height="2.84073" fill="black"/>
<rect x="37.8145" y="132.991" width="2.83607" height="2.84073" fill="black"/>
<rect x="56.7217" y="132.991" width="2.83607" height="2.84073" fill="black"/>
<rect x="75.6279" y="132.991" width="2.83607" height="2.84073" fill="black"/>
<rect x="94.5361" y="132.991" width="2.83607" height="2.84073" fill="black"/>
<rect x="113.443" y="132.991" width="2.83607" height="2.84073" fill="black"/>
<rect y="151.929" width="2.83607" height="2.84073" fill="black"/>
<rect x="18.9062" y="151.929" width="2.83607" height="2.84073" fill="black"/>
<rect x="37.8145" y="151.929" width="2.83607" height="2.84073" fill="black"/>
<rect x="56.7217" y="151.929" width="2.83607" height="2.84073" fill="black"/>
<rect x="75.6279" y="151.929" width="2.83607" height="2.84073" fill="black"/>
<rect x="94.5361" y="151.929" width="2.83607" height="2.84073" fill="black"/>
<rect x="113.443" y="151.929" width="2.83607" height="2.84073" fill="black"/>
<rect y="170.866" width="2.83607" height="2.84073" fill="black"/>
<rect x="18.9062" y="170.866" width="2.83607" height="2.84073" fill="black"/>
<rect x="37.8145" y="170.866" width="2.83607" height="2.84073" fill="black"/>
<rect x="56.7217" y="170.866" width="2.83607" height="2.84073" fill="black"/>
<rect x="75.6279" y="170.866" width="2.83607" height="2.84073" fill="black"/>
<rect x="94.5361" y="170.866" width="2.83607" height="2.84073" fill="black"/>
<rect x="113.443" y="170.866" width="2.83607" height="2.84073" fill="black"/>
<rect y="189.805" width="2.83607" height="2.84073" fill="black"/>
<rect x="18.9062" y="189.806" width="2.83607" height="2.84073" fill="black"/>
<rect x="37.8145" y="189.806" width="2.83607" height="2.84073" fill="black"/>
<rect x="56.7217" y="189.806" width="2.83607" height="2.84073" fill="black"/>
<rect x="75.6279" y="189.806" width="2.83607" height="2.84073" fill="black"/>
<rect x="94.5361" y="189.806" width="2.83607" height="2.84073" fill="black"/>
<rect x="113.443" y="189.806" width="2.83607" height="2.84073" fill="black"/>
</g>
</svg>
